<svg width="21" height="24" viewBox="0 0 21 24" fill="none" xmlns="http://www.w3.org/2000/svg">
<path fill-rule="evenodd" clip-rule="evenodd" d="M1.4331 0.233593C1.71568 0.0736695 2.03517 -0.00681165 2.35861 0.000451504C2.68136 0.00769931 2.99638 0.102059 3.27131 0.273817C3.27189 0.274182 3.27248 0.274547 3.27306 0.274913L19.6195 10.4248C19.8868 10.5869 20.1083 10.8163 20.2626 11.0909C20.4182 11.3679 20.5 11.6812 20.5 12C20.5 12.3188 20.4182 12.6321 20.2626 12.9091C20.1083 13.1837 19.8868 13.4132 19.6195 13.5752L3.27306 23.7251C3.27238 23.7255 3.2717 23.7259 3.27103 23.7264C2.99616 23.898 2.68125 23.9923 2.35861 23.9995C2.03517 24.0068 1.71568 23.9263 1.4331 23.7664C1.15051 23.6065 0.915063 23.3729 0.751039 23.0898C0.587015 22.8066 0.500356 22.4842 0.5 22.1557V1.84428C0.500356 1.5158 0.587015 1.19336 0.751039 0.910225C0.915063 0.627094 1.15051 0.393518 1.4331 0.233593ZM19.15 11.2153L18.6811 11.9938L18.687 11.9902C18.6854 11.9912 18.684 11.9926 18.6831 11.9943C18.6821 11.996 18.6816 11.998 18.6816 12C18.6816 12.002 18.6821 12.004 18.6831 12.0057C18.6841 12.0075 18.6855 12.0089 18.6872 12.0099L19.15 11.2153ZM18.671 12L2.3184 1.84632L2.3184 22.1537L2.32139 22.1518L18.671 12Z" fill="#E1E1E6"/>
</svg>
